<svg xmlns="http://www.w3.org/2000/svg" version="1.1" xmlns:xlink="http://www.w3.org/1999/xlink" xmlns:svgjs="http://svgjs.com/svgjs" width="400" height="400"><svg id="SvgjsSvg1006" version="1.1" xmlns="http://www.w3.org/2000/svg" xmlns:xlink="http://www.w3.org/1999/xlink" width="400" height="400" viewBox="0, 0, 400,400"><g id="SvgjsG1005"><path id="SvgjsPath1004" d="M229.169 69.764 C 229.044 69.889,227.335 70.177,225.371 70.403 C 222.005 70.790,220.343 71.078,216.300 71.979 C 215.365 72.187,214.060 72.470,213.400 72.609 C 212.740 72.747,211.840 73.006,211.400 73.185 C 210.960 73.363,209.790 73.730,208.800 74.001 C 206.721 74.569,204.982 75.128,203.700 75.640 C 203.205 75.838,202.395 76.156,201.900 76.346 C 194.884 79.047,180.600 86.692,177.943 89.168 C 177.451 89.625,176.813 90.000,176.525 90.000 C 176.236 90.000,176.000 90.141,176.000 90.314 C 176.000 90.486,175.505 90.925,174.900 91.289 C 174.295 91.653,173.350 92.312,172.800 92.754 C 167.875 96.709,166.122 97.996,165.655 97.998 C 164.593 98.002,160.109 94.257,153.000 87.428 C 142.089 76.947,140.666 75.854,136.561 74.803 C 130.109 73.151,127.218 80.679,130.446 90.723 C 132.810 98.077,139.674 110.742,143.493 114.798 C 144.012 115.349,144.802 116.383,145.248 117.096 L 146.060 118.391 144.130 120.896 C 143.068 122.273,142.101 123.490,141.981 123.600 C 141.860 123.710,141.329 124.430,140.800 125.200 C 140.271 125.970,139.734 126.690,139.606 126.800 C 138.866 127.437,132.219 137.994,128.273 144.800 C 126.974 147.041,122.191 156.540,121.505 158.243 C 121.159 159.100,120.350 160.970,119.706 162.400 C 117.488 167.330,115.725 172.029,112.581 181.400 C 110.727 186.927,110.324 188.257,109.555 191.400 C 109.080 193.339,108.503 195.652,107.957 197.800 C 106.580 203.217,104.612 214.821,103.989 221.200 C 102.214 239.365,102.822 257.130,105.618 268.800 C 105.855 269.790,106.149 271.097,106.271 271.705 C 106.393 272.313,106.651 272.908,106.846 273.029 C 107.041 273.149,107.200 273.741,107.200 274.344 C 107.200 274.947,107.343 275.611,107.518 275.820 C 107.693 276.029,108.065 276.920,108.345 277.800 C 111.719 288.427,121.420 302.333,130.802 309.995 C 132.011 310.981,133.090 311.905,133.200 312.048 C 134.340 313.521,146.651 320.539,151.600 322.536 C 154.466 323.692,155.353 324.070,156.095 324.447 C 156.477 324.641,157.064 324.800,157.400 324.800 C 157.736 324.800,158.323 324.962,158.705 325.159 C 159.087 325.356,160.750 325.909,162.400 326.388 C 164.050 326.866,165.953 327.425,166.628 327.629 C 167.304 327.833,168.328 328.000,168.905 328.000 C 169.481 328.000,170.048 328.154,170.165 328.343 C 170.281 328.531,171.417 328.819,172.688 328.981 C 173.960 329.143,176.080 329.440,177.400 329.640 C 183.957 330.633,189.616 330.957,200.400 330.957 C 215.397 330.957,222.988 330.127,234.800 327.197 C 235.790 326.952,237.097 326.651,237.705 326.529 C 238.313 326.407,238.908 326.149,239.029 325.954 C 239.149 325.759,239.676 325.600,240.200 325.600 C 240.724 325.600,241.264 325.420,241.400 325.200 C 241.536 324.980,241.962 324.800,242.346 324.800 C 244.307 324.800,259.509 317.877,263.349 315.235 C 264.336 314.556,265.257 314.000,265.394 314.000 C 265.672 314.000,270.484 310.805,270.800 310.411 C 270.910 310.274,271.630 309.721,272.400 309.183 C 280.477 303.541,290.331 291.026,294.042 281.700 C 295.556 277.895,295.736 277.230,297.210 270.000 C 297.741 267.396,297.544 255.279,296.936 253.194 C 294.846 246.017,289.456 246.921,282.592 255.601 C 277.959 261.459,271.115 268.601,267.444 271.410 C 266.589 272.064,265.689 272.792,265.444 273.026 C 264.596 273.839,256.582 279.058,253.305 280.932 C 246.754 284.677,233.811 290.000,231.253 290.000 C 230.810 290.000,230.348 290.161,230.226 290.358 C 230.105 290.555,229.329 290.813,228.503 290.932 C 227.676 291.051,226.100 291.352,225.000 291.600 C 215.312 293.790,199.902 293.791,191.200 291.603 C 190.210 291.354,188.903 291.051,188.295 290.929 C 187.687 290.807,187.092 290.549,186.971 290.354 C 186.851 290.159,186.448 289.998,186.076 289.995 C 185.217 289.988,179.693 287.178,177.289 285.524 C 170.837 281.085,164.986 273.523,161.949 265.700 C 161.757 265.205,161.429 264.395,161.221 263.900 C 158.896 258.387,157.146 249.236,156.368 238.524 C 155.925 232.426,156.394 214.997,157.064 212.668 C 157.179 212.266,157.435 210.466,157.631 208.668 C 158.300 202.537,160.289 192.808,162.346 185.600 C 162.566 184.830,162.863 183.750,163.006 183.200 C 163.150 182.650,163.411 181.840,163.588 181.400 C 163.765 180.960,164.364 179.160,164.919 177.400 C 167.812 168.234,174.264 154.008,179.943 144.275 C 180.598 143.153,182.482 143.001,183.800 143.964 C 184.020 144.124,185.010 144.501,186.000 144.800 C 186.990 145.099,187.980 145.459,188.200 145.600 C 188.420 145.741,189.410 146.089,190.400 146.374 C 191.390 146.658,192.560 147.031,193.000 147.202 C 193.440 147.372,194.520 147.704,195.400 147.938 C 196.280 148.173,198.080 148.656,199.400 149.012 C 230.180 157.312,264.454 154.330,277.453 142.222 C 277.702 141.990,278.692 141.179,279.653 140.421 C 285.350 135.924,290.531 128.380,292.374 121.900 C 292.608 121.075,292.980 119.802,293.200 119.072 C 294.124 116.002,293.556 101.240,292.396 98.200 C 292.228 97.760,291.859 96.590,291.576 95.600 C 291.293 94.610,290.912 93.629,290.730 93.420 C 290.549 93.211,290.400 92.793,290.400 92.492 C 290.400 92.191,289.860 91.159,289.200 90.200 C 288.540 89.241,288.000 88.330,288.000 88.176 C 288.000 87.847,285.886 85.385,283.265 82.662 C 280.398 79.683,271.928 74.400,270.020 74.400 C 269.598 74.400,269.111 74.196,267.305 73.262 C 266.813 73.008,265.969 72.800,265.429 72.800 C 264.889 72.800,264.348 72.640,264.227 72.444 C 264.106 72.249,263.421 71.987,262.704 71.864 C 261.987 71.740,260.320 71.442,259.000 71.202 C 257.680 70.962,255.520 70.578,254.200 70.348 C 251.623 69.900,229.548 69.385,229.169 69.764 M246.143 103.585 C 250.800 104.776,255.559 108.752,255.590 111.476 C 255.596 111.958,255.780 112.464,256.000 112.600 C 256.220 112.736,256.400 114.266,256.400 116.000 C 256.400 117.734,256.220 119.264,256.000 119.400 C 255.780 119.536,255.600 119.921,255.600 120.256 C 255.600 122.250,250.877 125.847,246.918 126.868 C 241.235 128.333,230.155 128.549,221.000 127.373 C 218.055 126.994,214.220 126.402,212.100 125.999 C 205.648 124.773,203.959 124.404,203.000 124.015 C 202.560 123.837,201.390 123.469,200.400 123.198 C 199.410 122.927,198.375 122.643,198.100 122.565 C 197.188 122.309,197.580 121.386,199.300 119.739 C 201.938 117.214,208.085 112.400,208.673 112.400 C 208.963 112.400,209.200 112.253,209.200 112.074 C 209.200 111.764,210.052 111.251,214.600 108.826 C 219.094 106.430,224.617 104.615,231.600 103.240 C 235.089 102.553,242.825 102.737,246.143 103.585 " stroke="none" fill="#fbfbfc" fill-rule="evenodd"></path><path id="SvgjsPath1003" d="M30.400 0.291 C 29.630 0.382,28.829 0.624,28.620 0.829 C 28.411 1.033,27.837 1.200,27.344 1.200 C 26.851 1.200,26.336 1.380,26.200 1.600 C 26.064 1.820,25.513 2.000,24.976 2.000 C 24.439 2.000,24.000 2.180,24.000 2.400 C 24.000 2.620,23.640 2.800,23.200 2.800 C 22.760 2.800,22.400 2.980,22.400 3.200 C 22.400 3.420,22.040 3.600,21.600 3.600 C 21.160 3.600,20.800 3.780,20.800 4.000 C 20.800 4.220,20.440 4.400,20.000 4.400 C 19.560 4.400,19.200 4.580,19.200 4.800 C 19.200 5.020,18.912 5.200,18.560 5.200 C 18.209 5.200,17.417 5.740,16.800 6.400 C 16.183 7.060,15.483 7.600,15.243 7.600 C 14.548 7.600,12.836 9.151,8.900 13.346 C 8.185 14.108,7.600 14.945,7.600 15.205 C 7.600 15.466,7.060 16.183,6.400 16.800 C 5.740 17.417,5.200 18.209,5.200 18.560 C 5.200 18.912,5.020 19.200,4.800 19.200 C 4.580 19.200,4.400 19.560,4.400 20.000 C 4.400 20.440,4.220 20.800,4.000 20.800 C 3.780 20.800,3.600 21.160,3.600 21.600 C 3.600 22.040,3.420 22.400,3.200 22.400 C 2.980 22.400,2.800 22.760,2.800 23.200 C 2.800 23.640,2.620 24.000,2.400 24.000 C 2.180 24.000,2.000 24.439,2.000 24.976 C 2.000 25.513,1.820 26.064,1.600 26.200 C 1.380 26.336,1.200 26.851,1.200 27.344 C 1.200 27.837,0.975 28.465,0.700 28.740 C -0.036 29.476,-0.036 370.524,0.700 371.260 C 0.975 371.535,1.200 372.163,1.200 372.656 C 1.200 373.149,1.380 373.664,1.600 373.800 C 1.820 373.936,2.000 374.487,2.000 375.024 C 2.000 375.561,2.180 376.000,2.400 376.000 C 2.620 376.000,2.800 376.360,2.800 376.800 C 2.800 377.240,2.980 377.600,3.200 377.600 C 3.420 377.600,3.600 377.960,3.600 378.400 C 3.600 378.840,3.780 379.200,4.000 379.200 C 4.220 379.200,4.400 379.560,4.400 380.000 C 4.400 380.440,4.580 380.800,4.800 380.800 C 5.020 380.800,5.200 381.088,5.200 381.440 C 5.200 381.791,5.740 382.583,6.400 383.200 C 7.060 383.817,7.600 384.517,7.600 384.757 C 7.600 385.782,14.206 392.400,15.229 392.400 C 15.476 392.400,16.183 392.940,16.800 393.600 C 17.417 394.260,18.209 394.800,18.560 394.800 C 18.912 394.800,19.200 394.980,19.200 395.200 C 19.200 395.420,19.560 395.600,20.000 395.600 C 20.440 395.600,20.800 395.780,20.800 396.000 C 20.800 396.220,21.160 396.400,21.600 396.400 C 22.040 396.400,22.400 396.580,22.400 396.800 C 22.400 397.020,22.760 397.200,23.200 397.200 C 23.640 397.200,24.000 397.380,24.000 397.600 C 24.000 397.820,24.439 398.000,24.976 398.000 C 25.513 398.000,26.064 398.180,26.200 398.400 C 26.336 398.620,26.851 398.800,27.344 398.800 C 27.837 398.800,28.465 399.025,28.740 399.300 C 29.476 400.036,370.524 400.036,371.260 399.300 C 371.535 399.025,372.163 398.800,372.656 398.800 C 373.149 398.800,373.664 398.620,373.800 398.400 C 373.936 398.180,374.487 398.000,375.024 398.000 C 375.561 398.000,376.000 397.820,376.000 397.600 C 376.000 397.380,376.360 397.200,376.800 397.200 C 377.240 397.200,377.600 397.020,377.600 396.800 C 377.600 396.580,377.960 396.400,378.400 396.400 C 378.840 396.400,379.200 396.220,379.200 396.000 C 379.200 395.780,379.560 395.600,380.000 395.600 C 380.440 395.600,380.800 395.420,380.800 395.200 C 380.800 394.980,381.088 394.800,381.440 394.800 C 381.791 394.800,382.583 394.260,383.200 393.600 C 383.817 392.940,384.524 392.400,384.771 392.400 C 385.794 392.400,392.400 385.782,392.400 384.757 C 392.400 384.517,392.940 383.817,393.600 383.200 C 394.260 382.583,394.800 381.791,394.800 381.440 C 394.800 381.088,394.980 380.800,395.200 380.800 C 395.420 380.800,395.600 380.440,395.600 380.000 C 395.600 379.560,395.780 379.200,396.000 379.200 C 396.220 379.200,396.400 378.840,396.400 378.400 C 396.400 377.960,396.580 377.600,396.800 377.600 C 397.020 377.600,397.200 377.240,397.200 376.800 C 397.200 376.360,397.380 376.000,397.600 376.000 C 397.820 376.000,398.000 375.561,398.000 375.024 C 398.000 374.487,398.180 373.936,398.400 373.800 C 398.620 373.664,398.800 373.149,398.800 372.656 C 398.800 372.163,399.025 371.535,399.300 371.260 C 400.036 370.524,400.036 29.476,399.300 28.740 C 399.025 28.465,398.800 27.837,398.800 27.344 C 398.800 26.851,398.620 26.336,398.400 26.200 C 398.180 26.064,398.000 25.513,398.000 24.976 C 398.000 24.439,397.820 24.000,397.600 24.000 C 397.380 24.000,397.200 23.640,397.200 23.200 C 397.200 22.760,397.020 22.400,396.800 22.400 C 396.580 22.400,396.400 22.040,396.400 21.600 C 396.400 21.160,396.220 20.800,396.000 20.800 C 395.780 20.800,395.600 20.440,395.600 20.000 C 395.600 19.560,395.420 19.200,395.200 19.200 C 394.980 19.200,394.800 18.912,394.800 18.560 C 394.800 18.209,394.260 17.417,393.600 16.800 C 392.940 16.183,392.400 15.476,392.400 15.229 C 392.400 14.206,385.782 7.600,384.757 7.600 C 384.517 7.600,383.817 7.060,383.200 6.400 C 382.583 5.740,381.791 5.200,381.440 5.200 C 381.088 5.200,380.800 5.020,380.800 4.800 C 380.800 4.580,380.440 4.400,380.000 4.400 C 379.560 4.400,379.200 4.220,379.200 4.000 C 379.200 3.780,378.840 3.600,378.400 3.600 C 377.960 3.600,377.600 3.420,377.600 3.200 C 377.600 2.980,377.240 2.800,376.800 2.800 C 376.360 2.800,376.000 2.620,376.000 2.400 C 376.000 2.180,375.561 2.000,375.024 2.000 C 374.487 2.000,373.936 1.820,373.800 1.600 C 373.664 1.380,373.149 1.200,372.656 1.200 C 372.163 1.200,371.535 0.975,371.260 0.700 C 370.782 0.222,34.383 -0.182,30.400 0.291 M251.200 69.212 C 253.290 69.418,256.080 69.776,257.400 70.009 C 258.720 70.241,260.476 70.533,261.303 70.658 C 262.129 70.783,262.905 71.045,263.026 71.242 C 263.148 71.439,263.678 71.600,264.205 71.600 C 264.731 71.600,265.666 71.802,266.281 72.050 C 266.897 72.297,267.805 72.657,268.300 72.850 C 268.795 73.042,269.605 73.358,270.100 73.551 C 272.037 74.306,276.607 76.613,276.733 76.898 C 276.807 77.064,277.044 77.200,277.261 77.200 C 280.117 77.200,289.787 87.966,291.307 92.839 C 291.576 93.697,291.931 94.400,292.097 94.400 C 292.264 94.400,292.400 94.929,292.400 95.576 C 292.400 96.223,292.559 96.851,292.754 96.971 C 294.486 98.042,295.198 118.858,293.561 120.580 C 293.363 120.789,293.200 121.363,293.200 121.856 C 293.200 122.349,293.020 122.864,292.800 123.000 C 292.580 123.136,292.400 123.567,292.400 123.957 C 292.400 127.113,286.188 135.879,280.608 140.600 C 279.567 141.480,278.478 142.425,278.187 142.700 C 277.895 142.975,277.479 143.200,277.262 143.200 C 277.045 143.200,276.807 143.345,276.733 143.523 C 276.569 143.922,273.429 146.014,271.800 146.812 C 271.140 147.135,270.510 147.489,270.400 147.600 C 269.589 148.416,261.481 151.410,257.600 152.326 C 252.992 153.413,251.785 153.621,247.345 154.090 C 235.723 155.317,217.666 154.223,206.600 151.620 C 205.720 151.413,203.380 150.863,201.400 150.399 C 199.420 149.934,197.487 149.384,197.105 149.177 C 196.723 148.970,195.969 148.800,195.429 148.800 C 194.889 148.800,194.336 148.620,194.200 148.400 C 194.064 148.180,193.434 148.000,192.800 148.000 C 192.166 148.000,191.536 147.820,191.400 147.600 C 191.264 147.380,190.801 147.200,190.371 147.200 C 189.616 147.200,189.226 147.056,187.305 146.062 C 186.813 145.808,186.136 145.600,185.800 145.600 C 185.464 145.600,184.832 145.420,184.395 145.200 C 183.958 144.980,183.242 144.620,182.805 144.400 C 181.447 143.716,181.030 143.939,180.009 145.900 C 179.465 146.945,178.923 147.890,178.804 148.000 C 178.686 148.110,178.144 149.100,177.600 150.200 C 177.056 151.300,176.518 152.290,176.405 152.400 C 175.946 152.847,174.400 156.115,174.400 156.638 C 174.400 156.947,174.220 157.200,174.000 157.200 C 173.780 157.200,173.600 157.440,173.600 157.734 C 173.600 158.028,173.001 159.513,172.269 161.034 C 171.537 162.555,169.994 166.230,168.839 169.200 C 167.684 172.170,166.573 174.913,166.370 175.295 C 166.166 175.677,166.000 176.264,166.000 176.600 C 166.000 176.936,165.838 177.523,165.639 177.905 C 165.440 178.287,165.063 179.410,164.800 180.400 C 164.537 181.390,164.160 182.513,163.961 182.895 C 163.762 183.277,163.600 183.941,163.600 184.371 C 163.600 184.801,163.440 185.252,163.244 185.373 C 162.908 185.580,162.672 186.593,162.142 190.103 C 162.018 190.929,161.755 191.705,161.558 191.826 C 161.361 191.948,161.200 192.631,161.200 193.344 C 161.200 194.057,161.038 194.811,160.841 195.020 C 160.644 195.229,160.381 196.120,160.257 197.000 C 160.133 197.880,159.844 199.635,159.616 200.900 C 159.387 202.165,159.015 204.235,158.789 205.500 C 157.425 213.137,156.894 239.520,157.958 246.800 C 158.231 248.670,158.550 251.010,158.666 252.000 C 158.782 252.990,159.040 253.971,159.239 254.180 C 159.437 254.389,159.600 255.143,159.600 255.856 C 159.600 256.569,159.780 257.264,160.000 257.400 C 160.220 257.536,160.400 258.166,160.400 258.800 C 160.400 259.434,160.580 260.064,160.800 260.200 C 161.020 260.336,161.200 260.876,161.200 261.400 C 161.200 261.924,161.380 262.464,161.600 262.600 C 161.820 262.736,162.000 263.111,162.000 263.434 C 162.000 264.841,166.302 272.937,168.832 276.290 C 173.239 282.132,178.872 286.302,186.400 289.296 C 186.950 289.514,187.713 289.852,188.095 290.047 C 188.477 290.241,189.321 290.400,189.971 290.400 C 190.621 290.400,191.252 290.560,191.373 290.756 C 191.597 291.119,192.486 291.312,197.400 292.064 C 201.004 292.615,213.261 292.607,217.400 292.052 C 219.160 291.815,221.500 291.509,222.600 291.372 C 223.700 291.235,224.771 290.960,224.980 290.761 C 225.189 290.563,226.033 290.400,226.856 290.400 C 227.679 290.400,228.464 290.220,228.600 290.000 C 228.736 289.780,229.366 289.600,230.000 289.600 C 230.634 289.600,231.264 289.420,231.400 289.200 C 231.536 288.980,232.166 288.800,232.800 288.800 C 233.434 288.800,234.064 288.620,234.200 288.400 C 234.336 288.180,234.762 288.000,235.146 288.000 C 237.329 288.000,253.675 280.262,258.062 277.153 C 258.646 276.739,259.321 276.400,259.562 276.400 C 259.803 276.400,260.000 276.262,260.000 276.094 C 260.000 275.926,260.720 275.344,261.600 274.800 C 262.480 274.256,263.200 273.674,263.200 273.506 C 263.200 273.338,263.425 273.199,263.700 273.198 C 263.975 273.197,264.740 272.702,265.400 272.098 C 266.060 271.494,267.230 270.520,268.000 269.934 C 269.742 268.608,277.200 261.374,277.200 261.010 C 277.200 260.863,277.425 260.505,277.700 260.213 C 277.975 259.922,278.853 258.900,279.651 257.942 C 280.450 256.984,282.070 255.048,283.251 253.641 C 288.186 247.763,293.353 245.915,295.971 249.091 C 296.647 249.911,297.200 250.981,297.200 251.468 C 297.200 251.954,297.353 252.448,297.541 252.563 C 298.492 253.151,298.815 262.536,298.087 268.400 C 297.325 274.536,297.135 275.593,296.758 275.826 C 296.561 275.948,296.400 276.566,296.400 277.200 C 296.400 277.834,296.220 278.464,296.000 278.600 C 295.780 278.736,295.600 279.199,295.600 279.629 C 295.600 280.059,295.438 280.723,295.241 281.105 C 295.043 281.487,294.100 283.420,293.145 285.400 C 292.189 287.380,291.271 289.060,291.104 289.133 C 290.937 289.207,290.796 289.477,290.792 289.733 C 290.760 291.608,281.024 303.099,276.000 307.193 C 274.790 308.179,273.509 309.304,273.153 309.693 C 272.797 310.082,272.317 310.400,272.086 310.400 C 271.856 310.400,271.607 310.549,271.533 310.730 C 271.385 311.098,265.379 315.200,264.990 315.200 C 264.855 315.200,263.937 315.756,262.949 316.435 C 261.019 317.763,250.811 322.800,250.050 322.800 C 249.797 322.800,249.277 322.965,248.895 323.167 C 247.012 324.163,244.325 325.200,243.628 325.200 C 243.199 325.200,242.736 325.380,242.600 325.600 C 242.464 325.820,241.924 326.000,241.400 326.000 C 240.876 326.000,240.336 326.180,240.200 326.400 C 240.064 326.620,239.524 326.800,239.000 326.800 C 238.476 326.800,237.936 326.980,237.800 327.200 C 237.664 327.420,237.034 327.600,236.400 327.600 C 235.766 327.600,235.136 327.780,235.000 328.000 C 234.864 328.220,234.054 328.400,233.200 328.400 C 232.346 328.400,231.536 328.580,231.400 328.800 C 231.264 329.020,230.479 329.200,229.656 329.200 C 228.833 329.200,227.989 329.363,227.780 329.563 C 227.571 329.763,226.500 330.027,225.400 330.149 C 224.300 330.272,222.140 330.548,220.600 330.763 C 206.925 332.673,192.642 332.612,178.200 330.582 C 177.320 330.459,175.700 330.268,174.600 330.159 C 173.500 330.051,172.240 329.802,171.800 329.608 C 171.360 329.414,170.460 329.163,169.800 329.052 C 169.140 328.940,167.790 328.645,166.800 328.396 C 165.810 328.146,164.413 327.845,163.696 327.727 C 162.979 327.608,162.294 327.351,162.173 327.156 C 162.052 326.960,161.524 326.800,161.000 326.800 C 160.476 326.800,159.936 326.620,159.800 326.400 C 159.664 326.180,159.124 326.000,158.600 326.000 C 158.076 326.000,157.536 325.820,157.400 325.600 C 157.264 325.380,156.801 325.200,156.371 325.200 C 155.941 325.200,155.277 325.035,154.895 324.834 C 154.011 324.368,151.904 323.463,149.600 322.561 C 147.967 321.921,144.837 320.330,141.253 318.317 C 131.829 313.025,121.556 303.310,115.539 294.000 C 112.953 289.997,110.000 284.535,110.000 283.751 C 110.000 283.448,109.820 283.200,109.600 283.200 C 109.380 283.200,109.200 282.750,109.200 282.200 C 109.200 281.650,109.020 281.200,108.800 281.200 C 108.580 281.200,108.400 280.838,108.400 280.395 C 108.400 279.617,108.258 279.231,107.262 277.305 C 107.008 276.813,106.800 276.059,106.800 275.629 C 106.800 275.199,106.620 274.736,106.400 274.600 C 106.180 274.464,106.000 273.834,106.000 273.200 C 106.000 272.566,105.841 271.949,105.646 271.829 C 105.451 271.708,105.176 271.023,105.033 270.305 C 104.891 269.587,104.600 268.100,104.387 267.000 C 104.174 265.900,103.814 264.100,103.587 263.000 C 101.716 253.946,101.733 230.361,103.620 217.200 C 104.503 211.037,104.770 209.347,105.179 207.300 C 105.411 206.145,105.789 204.255,106.020 203.100 C 106.252 201.945,106.540 200.280,106.661 199.400 C 106.783 198.520,107.044 197.629,107.241 197.420 C 107.438 197.211,107.600 196.457,107.600 195.744 C 107.600 195.031,107.780 194.336,108.000 194.200 C 108.220 194.064,108.400 193.344,108.400 192.600 C 108.400 191.856,108.580 191.136,108.800 191.000 C 109.020 190.864,109.200 190.234,109.200 189.600 C 109.200 188.966,109.380 188.336,109.600 188.200 C 109.820 188.064,110.000 187.434,110.000 186.800 C 110.000 186.166,110.180 185.536,110.400 185.400 C 110.620 185.264,110.800 184.724,110.800 184.200 C 110.800 183.676,110.980 183.136,111.200 183.000 C 111.420 182.864,111.600 182.401,111.600 181.971 C 111.600 181.541,111.758 180.877,111.951 180.495 C 112.144 180.113,112.516 179.080,112.777 178.200 C 113.039 177.320,113.403 176.240,113.587 175.800 C 113.770 175.360,114.600 173.110,115.430 170.800 C 116.261 168.490,117.338 165.700,117.825 164.600 C 118.312 163.500,119.105 161.700,119.587 160.600 C 121.257 156.787,127.377 144.599,127.688 144.467 C 127.860 144.393,128.000 144.174,128.000 143.979 C 128.000 143.123,137.234 128.327,138.676 126.871 C 138.964 126.581,139.200 126.219,139.200 126.067 C 139.200 125.916,139.610 125.344,140.111 124.796 C 140.613 124.248,141.459 123.170,141.992 122.400 C 142.525 121.630,143.069 120.910,143.200 120.800 C 144.566 119.655,145.145 118.091,144.474 117.359 C 144.091 116.942,143.342 115.970,142.808 115.200 C 142.275 114.430,141.724 113.710,141.584 113.600 C 138.394 111.088,131.400 96.789,128.365 86.572 C 127.892 84.980,127.896 81.494,128.372 80.319 C 128.577 79.813,128.861 78.864,129.003 78.209 C 129.670 75.131,136.821 72.169,138.200 74.400 C 138.336 74.620,138.797 74.800,139.224 74.800 C 139.651 74.800,140.000 74.980,140.000 75.200 C 140.000 75.420,140.320 75.600,140.712 75.600 C 141.103 75.600,141.683 75.960,142.000 76.400 C 142.317 76.840,142.772 77.200,143.010 77.200 C 143.455 77.200,145.051 78.668,153.400 86.752 C 159.519 92.678,162.129 95.027,163.272 95.639 C 163.773 95.907,164.425 96.368,164.720 96.663 C 165.463 97.405,165.694 97.354,167.283 96.100 C 168.049 95.495,169.273 94.550,170.002 94.000 C 170.730 93.450,171.523 92.811,171.763 92.581 C 172.004 92.351,173.096 91.549,174.191 90.799 C 175.286 90.050,176.503 89.158,176.897 88.818 C 178.726 87.236,186.759 82.512,192.000 79.937 C 197.407 77.281,198.312 76.866,200.700 75.946 C 202.449 75.273,203.808 74.703,204.495 74.353 C 204.877 74.159,205.631 74.000,206.171 74.000 C 206.711 74.000,207.264 73.820,207.400 73.600 C 207.536 73.380,208.166 73.200,208.800 73.200 C 209.434 73.200,210.064 73.020,210.200 72.800 C 210.336 72.580,210.876 72.400,211.400 72.400 C 211.924 72.400,212.452 72.239,212.574 72.042 C 212.695 71.845,213.471 71.587,214.297 71.468 C 215.124 71.349,216.700 71.052,217.800 70.807 C 227.428 68.666,239.699 68.080,251.200 69.212 M233.400 103.835 C 231.589 104.013,227.898 104.731,226.400 105.196 C 225.850 105.367,224.590 105.731,223.600 106.005 C 221.808 106.501,220.049 107.185,217.839 108.244 C 217.200 108.550,216.450 108.800,216.172 108.800 C 215.894 108.800,215.607 108.935,215.533 109.100 C 215.460 109.265,214.500 109.848,213.400 110.395 C 212.300 110.942,211.310 111.490,211.200 111.614 C 211.090 111.737,210.190 112.308,209.200 112.882 C 208.210 113.457,206.688 114.528,205.818 115.263 C 198.225 121.680,197.912 122.061,200.031 122.317 C 200.564 122.381,201.360 122.585,201.800 122.771 C 203.380 123.438,207.084 124.319,209.800 124.673 C 210.680 124.788,211.571 125.044,211.780 125.241 C 211.989 125.438,213.078 125.600,214.200 125.600 C 215.322 125.600,216.411 125.767,216.620 125.971 C 217.954 127.273,246.222 127.259,247.027 125.956 C 247.148 125.760,247.591 125.600,248.011 125.600 C 249.785 125.600,253.347 122.862,254.738 120.429 C 255.089 119.817,255.269 118.193,255.254 115.784 C 255.198 106.537,247.686 102.430,233.400 103.835 " stroke="none" fill="#54acfc" fill-rule="evenodd"></path><path id="SvgjsPath1002" d="M235.300 69.087 C 235.905 69.178,236.895 69.178,237.500 69.087 C 238.105 68.995,237.610 68.920,236.400 68.920 C 235.190 68.920,234.695 68.995,235.300 69.087 M241.712 69.095 C 242.764 69.177,244.384 69.176,245.312 69.092 C 246.240 69.008,245.380 68.941,243.400 68.942 C 241.420 68.943,240.660 69.012,241.712 69.095 M229.900 69.482 C 230.395 69.578,231.205 69.578,231.700 69.482 C 232.195 69.387,231.790 69.309,230.800 69.309 C 229.810 69.309,229.405 69.387,229.900 69.482 M248.305 69.483 C 248.802 69.579,249.522 69.575,249.905 69.475 C 250.287 69.375,249.880 69.296,249.000 69.301 C 248.120 69.305,247.807 69.387,248.305 69.483 M134.105 74.287 C 134.714 74.379,135.614 74.377,136.105 74.282 C 136.597 74.187,136.100 74.111,135.000 74.114 C 133.900 74.117,133.497 74.195,134.105 74.287 M149.000 83.200 C 150.528 84.740,151.869 86.000,151.979 86.000 C 152.089 86.000,150.928 84.740,149.400 83.200 C 147.872 81.660,146.531 80.400,146.421 80.400 C 146.311 80.400,147.472 81.660,149.000 83.200 M293.693 103.200 C 293.693 103.970,293.775 104.285,293.876 103.900 C 293.976 103.515,293.976 102.885,293.876 102.500 C 293.775 102.115,293.693 102.430,293.693 103.200 M233.700 103.476 C 234.085 103.576,234.715 103.576,235.100 103.476 C 235.485 103.375,235.170 103.293,234.400 103.293 C 233.630 103.293,233.315 103.375,233.700 103.476 M136.349 105.400 C 136.565 105.840,137.034 106.560,137.393 107.000 L 138.044 107.800 137.651 107.000 C 137.435 106.560,136.966 105.840,136.607 105.400 L 135.956 104.600 136.349 105.400 M251.600 106.525 C 251.600 106.594,252.185 107.179,252.900 107.825 L 254.200 109.000 253.025 107.700 C 251.930 106.488,251.600 106.216,251.600 106.525 M294.109 108.000 C 294.109 108.990,294.187 109.395,294.282 108.900 C 294.378 108.405,294.378 107.595,294.282 107.100 C 294.187 106.605,294.109 107.010,294.109 108.000 M294.101 114.200 C 294.105 115.080,294.187 115.393,294.283 114.895 C 294.379 114.398,294.375 113.678,294.275 113.295 C 294.175 112.913,294.096 113.320,294.101 114.200 M255.693 114.400 C 255.693 115.170,255.775 115.485,255.876 115.100 C 255.976 114.715,255.976 114.085,255.876 113.700 C 255.775 113.315,255.693 113.630,255.693 114.400 M218.100 126.676 C 218.485 126.776,219.115 126.776,219.500 126.676 C 219.885 126.575,219.570 126.493,218.800 126.493 C 218.030 126.493,217.715 126.575,218.100 126.676 M227.911 127.493 C 228.851 127.578,230.291 127.577,231.111 127.491 C 231.930 127.405,231.160 127.336,229.400 127.337 C 227.640 127.339,226.970 127.409,227.911 127.493 M239.305 127.487 C 239.914 127.579,240.814 127.577,241.305 127.482 C 241.797 127.387,241.300 127.311,240.200 127.314 C 239.100 127.317,238.697 127.395,239.305 127.487 M234.705 127.883 C 235.202 127.979,235.922 127.975,236.305 127.875 C 236.687 127.775,236.280 127.696,235.400 127.701 C 234.520 127.705,234.207 127.787,234.705 127.883 M229.900 154.289 C 230.615 154.378,231.785 154.378,232.500 154.289 C 233.215 154.201,232.630 154.128,231.200 154.128 C 229.770 154.128,229.185 154.201,229.900 154.289 M238.707 154.290 C 239.426 154.379,240.506 154.377,241.107 154.286 C 241.708 154.195,241.120 154.122,239.800 154.124 C 238.480 154.126,237.988 154.201,238.707 154.290 M157.701 211.400 C 157.705 212.280,157.787 212.593,157.883 212.095 C 157.979 211.598,157.975 210.878,157.875 210.495 C 157.775 210.113,157.696 210.520,157.701 211.400 M104.493 213.200 C 104.493 213.970,104.575 214.285,104.676 213.900 C 104.776 213.515,104.776 212.885,104.676 212.500 C 104.575 212.115,104.493 212.430,104.493 213.200 M156.937 221.000 C 156.939 222.760,157.009 223.430,157.093 222.489 C 157.178 221.549,157.177 220.109,157.091 219.289 C 157.005 218.470,156.936 219.240,156.937 221.000 M156.558 231.400 C 156.558 234.480,156.621 235.687,156.697 234.082 C 156.773 232.478,156.773 229.958,156.696 228.482 C 156.619 227.007,156.557 228.320,156.558 231.400 M102.909 228.000 C 102.909 228.990,102.987 229.395,103.082 228.900 C 103.178 228.405,103.178 227.595,103.082 227.100 C 102.987 226.605,102.909 227.010,102.909 228.000 M102.520 232.800 C 102.520 234.010,102.595 234.505,102.687 233.900 C 102.778 233.295,102.778 232.305,102.687 231.700 C 102.595 231.095,102.520 231.590,102.520 232.800 M156.909 240.000 C 156.909 240.990,156.987 241.395,157.082 240.900 C 157.178 240.405,157.178 239.595,157.082 239.100 C 156.987 238.605,156.909 239.010,156.909 240.000 M102.509 251.600 C 102.509 252.590,102.587 252.995,102.682 252.500 C 102.778 252.005,102.778 251.195,102.682 250.700 C 102.587 250.205,102.509 250.610,102.509 251.600 M284.581 252.500 L 283.000 254.200 284.700 252.619 C 286.281 251.148,286.584 250.800,286.281 250.800 C 286.216 250.800,285.451 251.565,284.581 252.500 M102.893 255.200 C 102.893 255.970,102.975 256.285,103.076 255.900 C 103.176 255.515,103.176 254.885,103.076 254.500 C 102.975 254.115,102.893 254.430,102.893 255.200 M297.693 255.600 C 297.693 256.370,297.775 256.685,297.876 256.300 C 297.976 255.915,297.976 255.285,297.876 254.900 C 297.775 254.515,297.693 254.830,297.693 255.600 M298.134 261.600 C 298.134 263.250,298.205 263.925,298.291 263.100 C 298.378 262.275,298.378 260.925,298.291 260.100 C 298.205 259.275,298.134 259.950,298.134 261.600 M273.392 265.300 L 269.800 269.000 273.500 265.408 C 275.535 263.433,277.200 261.768,277.200 261.708 C 277.200 261.418,276.728 261.864,273.392 265.300 M297.701 268.200 C 297.705 269.080,297.787 269.393,297.883 268.895 C 297.979 268.398,297.975 267.678,297.875 267.295 C 297.775 266.913,297.696 267.320,297.701 268.200 M172.800 281.325 C 172.800 281.394,173.385 281.979,174.100 282.625 L 175.400 283.800 174.225 282.500 C 173.130 281.288,172.800 281.016,172.800 281.325 M204.915 293.096 C 206.188 293.176,208.168 293.175,209.315 293.094 C 210.462 293.014,209.420 292.949,207.000 292.950 C 204.580 292.951,203.642 293.016,204.915 293.096 M269.400 311.835 L 268.200 312.866 269.500 312.006 C 270.215 311.533,270.800 311.068,270.800 310.973 C 270.800 310.673,270.631 310.778,269.400 311.835 M266.500 313.646 C 265.137 314.519,264.695 315.106,265.900 314.443 C 266.818 313.939,268.256 312.827,268.000 312.819 C 267.890 312.816,267.215 313.188,266.500 313.646 M180.500 330.676 C 180.885 330.776,181.515 330.776,181.900 330.676 C 182.285 330.575,181.970 330.493,181.200 330.493 C 180.430 330.493,180.115 330.575,180.500 330.676 M218.500 330.676 C 218.885 330.776,219.515 330.776,219.900 330.676 C 220.285 330.575,219.970 330.493,219.200 330.493 C 218.430 330.493,218.115 330.575,218.500 330.676 M190.300 331.489 C 191.015 331.578,192.185 331.578,192.900 331.489 C 193.615 331.401,193.030 331.328,191.600 331.328 C 190.170 331.328,189.585 331.401,190.300 331.489 M208.300 331.489 C 209.015 331.578,210.185 331.578,210.900 331.489 C 211.615 331.401,211.030 331.328,209.600 331.328 C 208.170 331.328,207.585 331.401,208.300 331.489 M198.900 331.894 C 199.945 331.976,201.655 331.976,202.700 331.894 C 203.745 331.812,202.890 331.744,200.800 331.744 C 198.710 331.744,197.855 331.812,198.900 331.894 " stroke="none" fill="#93c9fc" fill-rule="evenodd"></path><path id="SvgjsPath1001" d="M235.400 69.227 C 233.318 69.374,234.925 69.468,240.000 69.495 C 244.290 69.518,247.620 69.475,247.400 69.398 C 246.600 69.121,238.519 69.006,235.400 69.227 M225.600 70.000 L 224.200 70.295 225.600 70.300 C 226.370 70.303,227.540 70.168,228.200 70.000 L 229.400 69.695 228.200 69.700 C 227.540 69.703,226.370 69.838,225.600 70.000 M251.400 70.023 C 252.280 70.205,253.450 70.343,254.000 70.330 C 255.588 70.291,252.965 69.695,251.200 69.693 L 249.800 69.692 251.400 70.023 M220.000 70.800 L 219.000 71.120 220.000 71.120 C 220.550 71.120,221.450 70.976,222.000 70.800 L 223.000 70.480 222.000 70.480 C 221.450 70.480,220.550 70.624,220.000 70.800 M256.800 70.800 C 257.350 70.976,258.340 71.117,259.000 71.113 L 260.200 71.105 259.000 70.800 C 258.340 70.632,257.350 70.491,256.800 70.487 L 255.800 70.480 256.800 70.800 M216.600 71.600 L 215.800 71.944 216.600 71.966 C 217.040 71.978,217.670 71.813,218.000 71.600 C 218.795 71.086,217.796 71.086,216.600 71.600 M261.200 71.600 C 261.530 71.813,262.070 71.988,262.400 71.988 C 262.933 71.988,262.933 71.945,262.400 71.600 C 262.070 71.387,261.530 71.212,261.200 71.212 C 260.667 71.212,260.667 71.255,261.200 71.600 M213.000 72.400 L 212.200 72.744 213.000 72.766 C 213.440 72.778,214.070 72.613,214.400 72.400 C 215.195 71.886,214.196 71.886,213.000 72.400 M264.200 72.400 C 264.336 72.620,264.842 72.787,265.324 72.772 C 266.169 72.745,266.171 72.731,265.400 72.400 C 264.299 71.927,263.908 71.927,264.200 72.400 M210.200 73.200 C 209.429 73.531,209.431 73.545,210.276 73.572 C 210.758 73.587,211.264 73.420,211.400 73.200 C 211.692 72.727,211.301 72.727,210.200 73.200 M132.100 74.888 C 131.605 75.127,131.200 75.461,131.200 75.630 C 131.200 75.884,133.385 75.022,133.967 74.538 C 134.348 74.222,132.931 74.487,132.100 74.888 M137.000 74.841 C 140.948 76.259,142.677 77.513,148.620 83.271 C 151.139 85.711,153.200 87.604,153.200 87.478 C 153.200 87.172,145.870 80.078,143.641 78.226 C 141.257 76.245,138.885 74.926,137.200 74.644 L 135.800 74.409 137.000 74.841 M129.852 77.346 C 128.927 79.295,129.070 79.724,130.014 77.832 C 130.445 76.969,130.731 76.198,130.651 76.117 C 130.570 76.037,130.211 76.590,129.852 77.346 M276.000 76.929 C 276.000 77.027,277.125 77.841,278.500 78.739 C 281.802 80.895,287.039 86.255,288.329 88.800 C 288.608 89.350,289.207 90.250,289.660 90.800 C 291.091 92.538,288.433 87.985,286.858 86.000 C 284.073 82.491,276.000 75.747,276.000 76.929 M193.614 79.593 C 189.471 81.568,181.200 86.258,181.200 86.633 C 181.200 86.895,182.543 86.171,185.200 84.478 C 186.410 83.706,189.713 81.945,192.540 80.564 C 197.193 78.291,198.458 77.600,197.965 77.600 C 197.873 77.600,195.915 78.497,193.614 79.593 M128.720 81.500 C 128.621 82.545,128.664 84.300,128.816 85.400 C 129.047 87.065,129.102 86.747,129.147 83.500 C 129.204 79.312,129.014 78.422,128.720 81.500 M129.200 87.691 C 129.200 88.247,130.873 93.260,131.012 93.121 C 131.179 92.954,129.695 87.962,129.386 87.653 C 129.284 87.550,129.200 87.568,129.200 87.691 M154.400 88.545 C 154.400 89.491,164.535 98.002,165.655 97.998 C 166.122 97.996,167.875 96.709,172.800 92.754 C 173.350 92.312,174.295 91.653,174.900 91.289 C 175.505 90.925,176.000 90.477,176.000 90.293 C 176.000 89.916,174.523 90.979,169.604 94.896 C 167.737 96.383,165.968 97.600,165.674 97.600 C 164.902 97.600,160.666 94.288,157.300 91.052 C 155.705 89.519,154.400 88.391,154.400 88.545 M177.194 89.218 C 176.647 89.639,176.380 89.980,176.600 89.978 C 177.129 89.973,178.591 88.858,178.365 88.631 C 178.268 88.534,177.741 88.798,177.194 89.218 M131.232 93.872 C 131.194 94.428,134.661 102.000,134.954 102.000 C 135.064 102.000,134.383 100.335,133.440 98.300 C 132.498 96.265,131.622 94.330,131.495 94.000 C 131.367 93.670,131.249 93.612,131.232 93.872 M292.028 97.076 C 292.013 97.558,292.180 98.064,292.400 98.200 C 292.873 98.492,292.873 98.101,292.400 97.000 C 292.069 96.229,292.055 96.231,292.028 97.076 M292.880 100.000 C 292.880 100.550,293.024 101.450,293.200 102.000 L 293.520 103.000 293.520 102.000 C 293.520 101.450,293.376 100.550,293.200 100.000 L 292.880 99.000 292.880 100.000 M135.201 102.520 C 135.199 103.073,136.450 105.284,136.651 105.082 C 136.757 104.977,136.474 104.285,136.023 103.545 C 135.572 102.805,135.202 102.344,135.201 102.520 M230.800 103.448 L 228.200 103.980 230.600 103.695 C 233.705 103.326,243.279 103.321,245.600 103.687 L 247.400 103.971 245.400 103.424 C 242.836 102.723,234.272 102.736,230.800 103.448 M249.055 104.813 C 249.966 105.272,251.496 106.304,252.455 107.107 C 253.415 107.911,253.840 108.149,253.400 107.637 C 252.337 106.400,249.646 104.575,248.400 104.245 C 247.850 104.099,248.145 104.355,249.055 104.813 M224.200 104.897 C 219.027 106.672,212.221 109.719,211.759 110.467 C 211.630 110.675,213.116 110.056,215.062 109.090 C 218.701 107.285,221.507 106.149,225.000 105.068 C 226.100 104.728,226.640 104.457,226.200 104.467 C 225.760 104.477,224.860 104.670,224.200 104.897 M293.709 110.800 C 293.707 116.332,293.758 116.913,294.026 114.389 C 294.202 112.733,294.204 109.763,294.029 107.789 C 293.740 104.519,293.711 104.786,293.709 110.800 M137.812 107.200 C 138.542 108.529,142.038 113.600,142.224 113.600 C 142.447 113.600,138.524 107.631,137.887 107.000 C 137.615 106.731,137.591 106.797,137.812 107.200 M209.829 111.409 C 209.405 111.729,209.138 112.071,209.235 112.169 C 209.332 112.266,209.859 112.002,210.406 111.582 C 210.953 111.161,211.220 110.820,211.000 110.822 C 210.780 110.824,210.253 111.088,209.829 111.409 M203.982 115.764 C 197.721 120.799,196.209 122.800,198.664 122.800 C 199.277 122.800,199.268 122.734,198.576 122.196 C 197.828 121.614,197.864 121.534,199.600 119.951 C 201.576 118.149,206.447 114.193,208.010 113.121 C 208.554 112.748,208.812 112.433,208.582 112.421 C 208.352 112.409,206.282 113.914,203.982 115.764 M255.800 116.001 C 255.800 117.939,255.935 119.441,256.100 119.338 C 256.265 119.236,256.400 117.734,256.400 116.000 C 256.400 114.266,256.265 112.764,256.100 112.662 C 255.935 112.561,255.800 114.063,255.800 116.001 M142.800 114.321 C 142.800 114.559,142.950 114.846,143.133 114.959 C 143.317 115.072,143.967 115.887,144.579 116.769 L 145.690 118.373 143.611 120.987 C 142.467 122.424,141.682 123.588,141.866 123.572 C 142.721 123.502,146.019 118.382,145.650 117.696 C 144.990 116.468,142.800 113.875,142.800 114.321 M293.049 119.015 C 292.912 119.373,292.816 120.056,292.836 120.533 C 292.862 121.147,292.985 121.008,293.259 120.056 C 293.657 118.672,293.494 117.858,293.049 119.015 M254.672 121.309 L 253.945 122.600 254.819 121.742 C 255.301 121.270,255.628 120.689,255.547 120.451 C 255.466 120.213,255.073 120.599,254.672 121.309 M252.200 124.012 C 251.320 124.662,249.610 125.548,248.400 125.982 C 247.190 126.416,246.534 126.778,246.943 126.786 C 247.998 126.806,252.505 124.589,253.385 123.616 C 254.381 122.516,254.101 122.609,252.200 124.012 M203.000 124.000 C 203.136 124.220,203.642 124.387,204.124 124.372 C 204.969 124.345,204.971 124.331,204.200 124.000 C 203.099 123.527,202.708 123.527,203.000 124.000 M140.227 125.400 C 139.640 126.170,139.303 126.798,139.480 126.795 C 139.656 126.792,140.207 126.162,140.704 125.395 C 141.868 123.597,141.600 123.600,140.227 125.400 M291.376 124.643 C 291.243 125.059,290.784 126.100,290.357 126.957 C 289.930 127.813,289.650 128.584,289.737 128.670 C 289.823 128.756,290.386 127.819,290.988 126.588 C 291.591 125.357,291.979 124.245,291.851 124.118 C 291.723 123.990,291.510 124.226,291.376 124.643 M206.000 124.779 C 206.330 125.004,207.125 125.191,207.767 125.194 C 209.304 125.202,208.984 124.970,207.000 124.638 C 205.854 124.446,205.570 124.486,206.000 124.779 M210.000 125.605 C 210.330 125.816,211.125 125.991,211.767 125.994 C 213.314 126.002,212.977 125.771,211.000 125.468 C 209.910 125.301,209.591 125.345,210.000 125.605 M214.200 126.380 C 214.961 126.726,217.917 126.964,217.567 126.651 C 217.475 126.569,216.500 126.393,215.400 126.259 C 214.054 126.095,213.661 126.135,214.200 126.380 M219.600 127.210 C 220.586 127.516,226.690 127.737,226.367 127.455 C 226.275 127.375,224.490 127.218,222.400 127.105 C 220.310 126.992,219.050 127.039,219.600 127.210 M243.600 127.200 L 241.800 127.480 243.400 127.534 C 244.280 127.563,245.270 127.413,245.600 127.200 C 245.930 126.987,246.020 126.837,245.800 126.866 C 245.580 126.896,244.590 127.046,243.600 127.200 M231.546 128.087 C 234.060 128.282,237.278 128.289,238.746 128.102 C 240.879 127.832,239.986 127.762,234.200 127.750 L 227.000 127.734 231.546 128.087 M287.652 131.700 C 285.826 134.480,282.313 138.315,279.664 140.420 C 277.228 142.356,275.691 143.751,276.400 143.381 C 279.717 141.652,287.067 133.986,289.161 130.073 C 290.071 128.372,289.271 129.234,287.652 131.700 M134.511 133.900 C 131.600 138.410,128.055 144.302,127.231 146.000 L 126.746 147.000 127.564 146.000 C 128.014 145.450,128.386 144.889,128.391 144.753 C 128.404 144.406,133.654 135.671,135.516 132.900 C 137.422 130.062,137.695 129.600,137.467 129.600 C 137.368 129.600,136.038 131.535,134.511 133.900 M179.273 145.455 C 178.561 146.696,178.055 147.788,178.149 147.882 C 178.243 147.977,178.828 147.121,179.449 145.981 C 180.069 144.841,180.942 143.761,181.388 143.580 L 182.200 143.251 181.384 143.225 C 180.801 143.207,180.200 143.843,179.273 145.455 M274.081 144.572 C 272.223 145.885,271.962 146.261,273.531 145.362 C 274.263 144.943,275.050 144.375,275.280 144.100 C 275.871 143.393,275.593 143.502,274.081 144.572 M194.600 148.000 C 195.040 148.189,195.670 148.344,196.000 148.344 C 196.378 148.344,196.304 148.217,195.800 148.000 C 195.360 147.811,194.730 147.656,194.400 147.656 C 194.022 147.656,194.096 147.783,194.600 148.000 M197.400 148.800 C 197.840 148.989,198.470 149.144,198.800 149.144 C 199.178 149.144,199.104 149.017,198.600 148.800 C 198.160 148.611,197.530 148.456,197.200 148.456 C 196.822 148.456,196.896 148.583,197.400 148.800 M200.200 149.600 C 201.396 150.114,202.395 150.114,201.600 149.600 C 201.270 149.387,200.640 149.222,200.200 149.234 L 199.400 149.256 200.200 149.600 M176.214 151.035 C 175.841 151.604,175.627 152.161,175.739 152.272 C 175.850 152.383,176.229 151.918,176.581 151.237 C 177.359 149.733,177.144 149.615,176.214 151.035 M203.800 150.400 C 204.240 150.589,204.960 150.738,205.400 150.732 C 206.043 150.723,206.004 150.657,205.200 150.400 C 203.832 149.962,202.781 149.962,203.800 150.400 M261.200 150.400 C 260.667 150.745,260.667 150.788,261.200 150.788 C 261.530 150.788,262.070 150.613,262.400 150.400 C 262.933 150.055,262.933 150.012,262.400 150.012 C 262.070 150.012,261.530 150.187,261.200 150.400 M207.000 151.200 C 207.440 151.389,208.250 151.538,208.800 151.532 L 209.800 151.520 208.800 151.200 C 208.250 151.024,207.440 150.874,207.000 150.868 L 206.200 150.856 207.000 151.200 M258.600 151.200 C 258.096 151.417,258.022 151.544,258.400 151.544 C 258.730 151.544,259.360 151.389,259.800 151.200 C 260.304 150.983,260.378 150.856,260.000 150.856 C 259.670 150.856,259.040 151.011,258.600 151.200 M211.400 151.980 C 212.634 152.315,215.464 152.518,215.167 152.250 C 215.075 152.168,213.920 152.000,212.600 151.877 C 211.022 151.730,210.611 151.765,211.400 151.980 M255.200 152.000 C 253.833 152.288,253.828 152.295,255.000 152.319 C 255.660 152.333,256.560 152.189,257.000 152.000 C 257.962 151.587,257.164 151.587,255.200 152.000 M216.400 152.803 C 217.389 153.117,221.488 153.334,221.167 153.056 C 221.075 152.977,219.740 152.816,218.200 152.699 C 216.573 152.575,215.819 152.619,216.400 152.803 M250.600 152.800 L 249.000 153.086 250.400 153.103 C 251.170 153.113,252.250 152.976,252.800 152.800 C 254.085 152.388,252.899 152.388,250.600 152.800 M223.000 153.628 C 224.567 153.947,231.495 154.140,231.167 153.855 C 231.075 153.776,228.840 153.619,226.200 153.506 C 223.234 153.380,222.011 153.426,223.000 153.628 M243.000 153.600 L 239.800 153.853 242.800 153.904 C 244.450 153.931,246.520 153.805,247.400 153.623 L 249.000 153.292 247.600 153.319 C 246.830 153.334,244.760 153.461,243.000 153.600 M234.500 154.287 C 235.105 154.378,236.095 154.378,236.700 154.287 C 237.305 154.195,236.810 154.120,235.600 154.120 C 234.390 154.120,233.895 154.195,234.500 154.287 M172.975 157.500 C 170.776 162.144,170.316 163.299,170.779 163.013 C 171.011 162.870,171.200 162.589,171.200 162.389 C 171.200 162.189,171.884 160.625,172.720 158.913 C 174.422 155.427,174.852 154.400,174.609 154.400 C 174.518 154.400,173.783 155.795,172.975 157.500 M120.272 160.219 C 119.332 162.189,119.464 162.524,120.447 160.662 C 120.893 159.816,121.187 159.054,121.101 158.967 C 121.014 158.881,120.641 159.444,120.272 160.219 M169.450 165.191 C 168.547 167.447,168.687 167.783,169.637 165.642 C 170.066 164.675,170.345 163.812,170.258 163.725 C 170.171 163.638,169.808 164.298,169.450 165.191 M117.800 165.861 C 117.464 166.665,117.282 167.415,117.395 167.528 C 117.508 167.641,117.600 167.635,117.600 167.516 C 117.600 167.396,117.872 166.646,118.205 165.849 C 118.538 165.052,118.721 164.400,118.611 164.400 C 118.501 164.400,118.136 165.058,117.800 165.861 M115.770 171.043 C 115.634 171.459,115.249 172.520,114.916 173.400 C 113.637 176.781,110.384 186.918,110.532 187.065 C 110.617 187.150,111.595 184.471,112.705 181.110 C 113.815 177.750,115.107 174.032,115.576 172.848 C 116.045 171.664,116.337 170.604,116.224 170.491 C 116.111 170.378,115.907 170.626,115.770 171.043 M165.000 176.800 C 164.850 177.273,164.817 177.750,164.927 177.860 C 165.037 177.970,165.250 177.673,165.400 177.200 C 165.550 176.727,165.583 176.250,165.473 176.140 C 165.363 176.030,165.150 176.327,165.000 176.800 M164.200 179.200 C 164.050 179.673,164.017 180.150,164.127 180.260 C 164.237 180.370,164.450 180.073,164.600 179.600 C 164.750 179.127,164.783 178.650,164.673 178.540 C 164.563 178.430,164.350 178.727,164.200 179.200 M161.873 186.953 C 161.723 187.345,161.611 187.966,161.625 188.333 C 161.642 188.775,161.781 188.674,162.037 188.034 C 162.249 187.503,162.361 186.882,162.285 186.654 C 162.209 186.427,162.024 186.561,161.873 186.953 M110.046 188.067 C 110.021 188.434,109.896 189.064,109.770 189.467 C 109.552 190.162,109.563 190.163,109.997 189.487 C 110.248 189.096,110.373 188.466,110.273 188.087 C 110.111 187.468,110.088 187.466,110.046 188.067 M161.073 190.153 C 160.923 190.545,160.811 191.166,160.825 191.533 C 160.842 191.975,160.981 191.874,161.237 191.234 C 161.449 190.703,161.561 190.082,161.485 189.854 C 161.409 189.627,161.224 189.761,161.073 190.153 M109.249 190.800 C 109.216 191.130,109.089 191.850,108.967 192.400 C 108.775 193.264,108.807 193.303,109.199 192.688 C 109.448 192.297,109.575 191.577,109.481 191.088 C 109.386 190.600,109.282 190.470,109.249 190.800 M160.249 193.415 C 160.112 193.773,160.016 194.456,160.036 194.933 C 160.062 195.547,160.185 195.408,160.459 194.456 C 160.857 193.072,160.694 192.258,160.249 193.415 M108.454 194.267 C 108.425 194.744,108.296 195.464,108.170 195.867 C 107.952 196.561,107.964 196.562,108.396 195.888 C 108.647 195.497,108.775 194.777,108.681 194.288 C 108.509 193.401,108.509 193.401,108.454 194.267 M159.449 197.015 C 159.312 197.373,159.218 198.146,159.240 198.733 C 159.273 199.591,159.352 199.495,159.646 198.240 C 160.022 196.639,159.895 195.853,159.449 197.015 M107.429 198.229 C 107.281 198.815,107.251 199.384,107.361 199.494 C 107.471 199.604,107.681 199.215,107.829 198.629 C 107.976 198.042,108.006 197.473,107.896 197.363 C 107.786 197.253,107.576 197.642,107.429 198.229 M158.676 201.210 C 158.530 201.755,158.427 202.650,158.446 203.200 C 158.471 203.918,158.584 203.757,158.849 202.627 C 159.255 200.895,159.100 199.625,158.676 201.210 M106.849 201.200 C 106.816 201.530,106.689 202.250,106.567 202.800 C 106.375 203.664,106.407 203.703,106.799 203.088 C 107.048 202.697,107.175 201.977,107.081 201.488 C 106.986 201.000,106.882 200.870,106.849 201.200 M105.822 206.222 C 105.672 207.025,105.638 207.772,105.748 207.882 C 105.858 207.992,106.072 207.425,106.222 206.622 C 106.373 205.819,106.406 205.073,106.296 204.963 C 106.186 204.853,105.973 205.419,105.822 206.222 M157.856 205.684 C 157.721 206.188,157.631 207.410,157.656 208.400 C 157.697 210.024,157.734 209.947,158.035 207.618 C 158.378 204.971,158.293 204.054,157.856 205.684 M105.018 210.618 C 104.865 211.639,104.830 212.563,104.940 212.673 C 105.050 212.783,105.265 212.039,105.418 211.018 C 105.571 209.998,105.606 209.073,105.496 208.963 C 105.386 208.853,105.171 209.598,105.018 210.618 M157.059 212.288 C 156.921 213.119,156.831 214.790,156.858 216.000 C 156.900 217.824,156.967 217.590,157.251 214.630 C 157.606 210.942,157.498 209.630,157.059 212.288 M104.254 215.954 C 104.100 216.918,104.058 217.791,104.161 217.894 C 104.430 218.163,104.915 215.345,104.707 214.722 C 104.612 214.436,104.408 214.990,104.254 215.954 M156.544 222.400 C 156.544 224.490,156.612 225.345,156.694 224.300 C 156.776 223.255,156.776 221.545,156.694 220.500 C 156.612 219.455,156.544 220.310,156.544 222.400 M103.411 222.868 C 103.246 224.555,103.197 226.175,103.301 226.468 C 103.406 226.761,103.625 225.619,103.789 223.932 C 103.954 222.245,104.003 220.625,103.899 220.332 C 103.794 220.039,103.575 221.181,103.411 222.868 M156.154 231.200 C 156.154 233.950,156.218 235.075,156.296 233.700 C 156.374 232.325,156.374 230.075,156.296 228.700 C 156.218 227.325,156.154 228.450,156.154 231.200 M102.662 233.500 C 102.348 238.253,102.393 248.523,102.743 251.800 C 102.885 253.120,103.016 248.665,103.035 241.900 C 103.055 235.135,103.037 229.600,102.996 229.600 C 102.954 229.600,102.804 231.355,102.662 233.500 M156.520 238.800 C 156.520 240.010,156.595 240.505,156.687 239.900 C 156.778 239.295,156.778 238.305,156.687 237.700 C 156.595 237.095,156.520 237.590,156.520 238.800 M156.840 243.833 C 156.862 245.135,157.018 246.650,157.188 247.200 C 157.357 247.750,157.405 246.760,157.293 245.000 C 157.052 241.190,156.784 240.500,156.840 243.833 M293.800 248.146 C 294.240 248.485,294.939 249.087,295.353 249.482 C 295.918 250.021,296.059 250.052,295.920 249.604 C 295.819 249.276,295.120 248.675,294.368 248.268 C 293.539 247.820,293.315 247.772,293.800 248.146 M157.628 249.833 C 157.644 250.695,157.817 251.760,158.014 252.200 C 158.248 252.722,158.288 252.237,158.132 250.800 C 157.843 248.158,157.589 247.670,157.628 249.833 M286.526 251.024 C 285.385 252.016,282.478 255.217,280.066 258.137 C 277.655 261.057,273.818 265.226,271.541 267.400 C 269.263 269.575,268.120 270.792,269.000 270.106 C 271.001 268.545,276.755 262.642,279.629 259.201 C 280.823 257.772,282.205 256.154,282.700 255.606 C 283.195 255.057,283.600 254.480,283.600 254.323 C 283.600 254.166,284.865 252.949,286.410 251.619 C 287.956 250.288,289.081 249.204,288.910 249.210 C 288.740 249.215,287.667 250.031,286.526 251.024 M296.834 253.000 C 296.822 253.440,296.987 254.070,297.200 254.400 C 297.714 255.195,297.714 254.196,297.200 253.000 L 296.856 252.200 296.834 253.000 M158.446 254.400 C 158.427 254.950,158.587 255.670,158.800 256.000 C 159.294 256.764,159.294 255.942,158.800 254.400 L 158.480 253.400 158.446 254.400 M103.270 256.800 C 103.257 257.350,103.395 258.520,103.577 259.400 L 103.908 261.000 103.907 259.600 C 103.905 257.835,103.309 255.212,103.270 256.800 M159.246 257.600 C 159.227 258.150,159.387 258.870,159.600 259.200 C 160.094 259.964,160.094 259.142,159.600 257.600 L 159.280 256.600 159.246 257.600 M297.755 261.800 C 297.756 264.660,297.820 265.778,297.897 264.283 C 297.974 262.789,297.974 260.449,297.896 259.083 C 297.818 257.718,297.755 258.940,297.755 261.800 M104.034 263.000 C 104.072 264.366,104.738 265.642,104.766 264.400 C 104.778 263.850,104.613 263.130,104.400 262.800 C 104.080 262.305,104.016 262.340,104.034 263.000 M104.856 267.000 C 104.856 267.440,105.011 268.160,105.200 268.600 L 105.544 269.400 105.544 268.600 C 105.544 268.160,105.389 267.440,105.200 267.000 L 104.856 266.200 104.856 267.000 M296.978 270.578 C 296.827 271.381,296.794 272.127,296.904 272.237 C 297.014 272.347,297.227 271.781,297.378 270.978 C 297.528 270.175,297.562 269.428,297.452 269.318 C 297.342 269.208,297.128 269.775,296.978 270.578 M165.688 273.207 C 168.462 278.095,175.308 284.786,180.000 287.195 C 181.469 287.949,180.938 287.513,177.747 285.341 C 173.107 282.185,169.880 278.872,166.603 273.900 C 164.849 271.240,164.362 270.871,165.688 273.207 M106.428 273.076 C 106.518 274.115,107.144 274.996,107.172 274.124 C 107.187 273.642,107.020 273.136,106.800 273.000 C 106.580 272.864,106.413 272.898,106.428 273.076 M261.600 275.301 C 259.730 276.597,256.985 278.372,255.500 279.246 C 254.015 280.120,252.800 280.925,252.800 281.035 C 252.800 281.391,263.614 274.664,265.167 273.342 C 266.413 272.280,264.222 273.484,261.600 275.301 M296.229 274.629 C 296.081 275.215,296.038 275.772,296.132 275.866 C 296.227 275.960,296.424 275.558,296.571 274.971 C 296.719 274.385,296.762 273.828,296.668 273.734 C 296.573 273.640,296.376 274.042,296.229 274.629 M249.280 282.610 C 247.894 283.323,246.638 284.029,246.488 284.178 C 245.841 284.825,250.411 282.706,252.000 281.622 C 253.176 280.819,251.760 281.334,249.280 282.610 M109.975 282.934 C 111.560 287.103,118.009 297.355,121.214 300.800 C 122.135 301.790,122.643 302.242,122.344 301.805 C 122.045 301.367,121.387 300.557,120.882 300.005 C 119.009 297.955,114.383 290.802,112.193 286.569 C 109.819 281.981,109.270 281.081,109.975 282.934 M291.046 287.786 C 290.691 288.328,290.400 288.876,290.400 289.004 C 290.400 289.326,286.767 294.654,285.221 296.600 C 283.657 298.569,278.847 303.538,276.010 306.117 C 274.850 307.171,273.996 308.129,274.111 308.245 C 275.035 309.169,287.751 294.446,290.913 288.791 C 292.077 286.710,292.159 286.087,291.046 287.786 M184.800 289.600 C 185.130 289.813,185.670 289.988,186.000 289.988 C 186.533 289.988,186.533 289.945,186.000 289.600 C 185.670 289.387,185.130 289.212,184.800 289.212 C 184.267 289.212,184.267 289.255,184.800 289.600 M231.800 289.600 L 231.000 289.944 231.800 289.966 C 232.240 289.978,232.870 289.813,233.200 289.600 C 233.995 289.086,232.996 289.086,231.800 289.600 M229.000 290.400 C 228.229 290.731,228.231 290.745,229.076 290.772 C 229.558 290.787,230.064 290.620,230.200 290.400 C 230.492 289.927,230.101 289.927,229.000 290.400 M189.600 291.182 C 189.930 291.405,190.545 291.591,190.967 291.594 C 191.990 291.602,191.671 291.373,190.200 291.044 C 189.324 290.848,189.162 290.885,189.600 291.182 M225.200 291.200 L 224.200 291.520 225.200 291.554 C 225.750 291.573,226.470 291.413,226.800 291.200 C 227.564 290.706,226.742 290.706,225.200 291.200 M192.800 291.979 C 193.130 292.204,193.925 292.391,194.567 292.394 C 196.104 292.402,195.784 292.170,193.800 291.838 C 192.654 291.646,192.370 291.686,192.800 291.979 M220.800 292.000 L 219.000 292.280 220.800 292.334 C 221.790 292.363,222.870 292.213,223.200 292.000 C 223.905 291.545,223.729 291.545,220.800 292.000 M197.400 292.808 C 198.163 293.128,203.114 293.357,202.767 293.055 C 202.675 292.976,201.250 292.812,199.600 292.691 C 197.827 292.562,196.927 292.610,197.400 292.808 M213.800 292.800 L 211.000 293.059 213.800 293.089 C 215.340 293.106,217.050 292.976,217.600 292.800 L 218.600 292.480 217.600 292.511 C 217.050 292.527,215.340 292.658,213.800 292.800 M125.622 305.836 C 127.438 307.728,133.203 312.510,133.188 312.112 C 133.181 311.940,132.345 311.174,131.331 310.410 C 130.316 309.645,128.431 307.980,127.140 306.710 C 124.590 304.198,123.382 303.504,125.622 305.836 M272.105 309.325 C 271.393 309.806,270.808 310.347,270.805 310.527 C 270.799 310.888,273.035 309.390,273.412 308.781 C 273.734 308.260,273.596 308.317,272.105 309.325 M133.600 312.601 C 133.600 312.947,142.840 318.893,143.051 318.682 C 143.153 318.581,142.373 317.996,141.318 317.383 C 140.263 316.770,138.095 315.393,136.500 314.322 C 134.905 313.252,133.600 312.477,133.600 312.601 M263.681 314.972 C 262.956 315.484,262.236 316.039,262.081 316.203 C 261.664 316.647,264.073 315.359,265.000 314.643 C 266.275 313.659,265.137 313.942,263.681 314.972 M260.300 317.029 C 259.695 317.357,259.200 317.710,259.200 317.813 C 259.200 318.199,259.832 317.957,260.800 317.200 C 261.989 316.270,261.811 316.209,260.300 317.029 M253.942 320.171 C 252.481 320.898,249.556 322.178,247.443 323.014 C 245.330 323.850,243.669 324.602,243.752 324.686 C 243.835 324.769,245.590 324.162,247.652 323.338 C 251.648 321.739,257.666 318.851,257.000 318.850 C 256.780 318.849,255.404 319.444,253.942 320.171 M145.200 319.818 C 145.200 320.060,148.042 321.471,150.407 322.403 C 151.532 322.846,152.340 323.027,152.203 322.805 C 152.065 322.582,151.772 322.400,151.550 322.400 C 151.329 322.400,149.809 321.782,148.174 321.026 C 146.538 320.270,145.200 319.727,145.200 319.818 M154.338 324.044 C 155.293 324.491,156.174 324.759,156.295 324.638 C 156.416 324.518,156.174 324.311,155.757 324.180 C 155.341 324.049,154.687 323.775,154.305 323.571 C 153.923 323.367,153.383 323.207,153.105 323.215 C 152.827 323.223,153.382 323.596,154.338 324.044 M241.400 325.200 C 241.108 325.673,241.499 325.673,242.600 325.200 C 243.371 324.869,243.369 324.855,242.524 324.828 C 242.042 324.813,241.536 324.980,241.400 325.200 M159.233 325.744 C 159.325 325.823,159.940 326.008,160.600 326.156 C 161.476 326.352,161.638 326.315,161.200 326.018 C 160.660 325.653,158.832 325.398,159.233 325.744 M239.000 326.000 C 238.708 326.473,239.099 326.473,240.200 326.000 C 240.971 325.669,240.969 325.655,240.124 325.628 C 239.642 325.613,239.136 325.780,239.000 326.000 M236.400 326.800 C 235.605 327.314,236.604 327.314,237.800 326.800 L 238.600 326.456 237.800 326.434 C 237.360 326.422,236.730 326.587,236.400 326.800 M164.833 327.344 C 164.925 327.423,165.540 327.608,166.200 327.756 C 167.076 327.952,167.238 327.915,166.800 327.618 C 166.260 327.253,164.432 326.998,164.833 327.344 M233.200 327.618 C 232.762 327.915,232.924 327.952,233.800 327.756 C 235.271 327.427,235.590 327.198,234.567 327.206 C 234.145 327.209,233.530 327.395,233.200 327.618 M168.033 328.144 C 168.505 328.550,170.443 328.793,170.210 328.416 C 170.068 328.187,169.483 328.000,168.910 328.000 C 168.336 328.000,167.942 328.065,168.033 328.144 M229.600 328.400 C 228.836 328.894,229.658 328.894,231.200 328.400 L 232.200 328.080 231.200 328.046 C 230.650 328.027,229.930 328.187,229.600 328.400 M171.233 328.949 C 171.325 329.031,172.300 329.201,173.400 329.328 C 174.749 329.484,175.074 329.449,174.400 329.220 C 173.401 328.880,170.918 328.668,171.233 328.949 M225.400 329.200 L 224.600 329.544 225.400 329.525 C 225.840 329.514,226.740 329.368,227.400 329.200 L 228.600 328.895 227.400 328.875 C 226.740 328.865,225.840 329.011,225.400 329.200 M177.800 330.000 C 178.460 330.168,179.360 330.314,179.800 330.325 L 180.600 330.344 179.800 330.000 C 179.360 329.811,178.460 329.665,177.800 329.675 L 176.600 329.695 177.800 330.000 M220.400 330.000 C 219.642 330.490,220.870 330.490,222.400 330.000 C 223.380 329.686,223.376 329.679,222.200 329.646 C 221.540 329.627,220.730 329.787,220.400 330.000 M184.200 330.818 C 185.300 330.990,186.830 331.124,187.600 331.118 L 189.000 331.105 187.800 330.800 C 187.140 330.632,185.610 330.497,184.400 330.501 L 182.200 330.507 184.200 330.818 M213.000 330.800 L 211.800 331.105 213.000 331.118 C 213.660 331.124,215.100 330.990,216.200 330.818 L 218.200 330.507 216.200 330.501 C 215.100 330.497,213.660 330.632,213.000 330.800 M197.320 331.498 C 199.255 331.572,202.315 331.571,204.120 331.497 C 205.924 331.423,204.340 331.363,200.600 331.364 C 196.860 331.364,195.384 331.425,197.320 331.498 " stroke="none" fill="#b9dcfc" fill-rule="evenodd"></path><path id="SvgjsPath1000" d="M238.115 68.696 C 239.388 68.776,241.368 68.775,242.515 68.694 C 243.662 68.614,242.620 68.549,240.200 68.550 C 237.780 68.551,236.842 68.616,238.115 68.696 M231.705 69.087 C 232.314 69.179,233.214 69.177,233.705 69.082 C 234.197 68.987,233.700 68.911,232.600 68.914 C 231.500 68.917,231.097 68.995,231.705 69.087 M224.400 69.597 C 223.819 69.781,224.573 69.825,226.200 69.701 C 227.740 69.584,229.075 69.423,229.167 69.344 C 229.488 69.066,225.389 69.283,224.400 69.597 M250.433 69.346 C 250.525 69.426,251.770 69.587,253.200 69.702 C 254.727 69.826,255.470 69.778,255.000 69.585 C 254.226 69.267,250.096 69.051,250.433 69.346 M219.600 70.395 C 219.191 70.655,219.510 70.699,220.600 70.532 C 222.577 70.229,222.914 69.998,221.367 70.006 C 220.725 70.009,219.930 70.184,219.600 70.395 M256.433 70.145 C 256.525 70.225,257.401 70.392,258.379 70.518 C 259.530 70.665,259.954 70.616,259.579 70.379 C 259.045 70.040,256.058 69.819,256.433 70.145 M216.000 71.218 C 215.562 71.515,215.724 71.552,216.600 71.356 C 218.071 71.027,218.390 70.798,217.367 70.806 C 216.945 70.809,216.330 70.995,216.000 71.218 M261.800 71.200 C 262.901 71.673,263.292 71.673,263.000 71.200 C 262.864 70.980,262.358 70.813,261.876 70.828 C 261.031 70.855,261.029 70.869,261.800 71.200 M212.600 72.000 C 212.308 72.473,212.699 72.473,213.800 72.000 C 214.571 71.669,214.569 71.655,213.724 71.628 C 213.242 71.613,212.736 71.780,212.600 72.000 M264.033 71.744 C 264.125 71.823,264.740 72.008,265.400 72.156 C 266.276 72.352,266.438 72.315,266.000 72.018 C 265.460 71.653,263.632 71.398,264.033 71.744 M143.222 77.470 C 143.234 77.651,143.774 78.219,144.422 78.730 C 145.070 79.242,145.590 79.512,145.578 79.330 C 145.566 79.149,145.026 78.581,144.378 78.070 C 143.730 77.558,143.210 77.288,143.222 77.470 M128.243 80.633 C 127.903 81.517,127.950 85.703,128.306 86.262 C 128.468 86.517,128.600 85.212,128.600 83.363 C 128.600 79.711,128.599 79.704,128.243 80.633 M284.017 82.615 C 285.217 83.943,286.282 84.971,286.381 84.900 C 286.481 84.829,285.498 83.743,284.198 82.486 L 281.833 80.200 284.017 82.615 M187.800 82.000 C 187.140 82.437,186.780 82.792,187.000 82.788 C 187.401 82.782,189.576 81.223,189.200 81.212 C 189.090 81.208,188.460 81.563,187.800 82.000 M152.000 85.800 C 154.081 87.890,155.874 89.600,155.984 89.600 C 156.094 89.600,154.481 87.890,152.400 85.800 C 150.319 83.710,148.526 82.000,148.416 82.000 C 148.306 82.000,149.919 83.710,152.000 85.800 M182.000 85.448 C 179.690 86.902,177.485 88.294,177.100 88.542 C 176.715 88.790,176.400 89.123,176.400 89.283 C 176.400 89.443,177.525 88.799,178.900 87.852 C 180.275 86.905,182.525 85.458,183.900 84.636 C 186.017 83.371,186.776 82.791,186.300 82.802 C 186.245 82.804,184.310 83.994,182.000 85.448 M288.197 87.700 C 289.031 88.965,289.789 90.000,289.882 90.000 C 290.224 90.000,288.217 86.759,287.462 86.091 C 287.033 85.711,287.364 86.435,288.197 87.700 M158.034 91.454 C 158.052 91.644,158.772 92.406,159.634 93.146 C 160.495 93.887,161.185 94.337,161.166 94.146 C 161.148 93.956,160.428 93.194,159.566 92.454 C 158.705 91.713,158.015 91.263,158.034 91.454 M167.985 95.632 L 166.600 96.863 167.888 96.013 C 169.030 95.259,169.893 94.400,169.508 94.400 C 169.432 94.400,168.747 94.954,167.985 95.632 M162.400 95.363 C 162.400 95.443,162.850 95.803,163.400 96.163 C 163.950 96.524,164.400 96.663,164.400 96.473 C 164.400 96.284,163.950 95.923,163.400 95.673 C 162.850 95.422,162.400 95.283,162.400 95.363 M293.458 100.400 C 293.775 102.125,294.002 102.451,293.994 101.167 C 293.991 100.635,293.811 99.930,293.594 99.600 C 293.318 99.178,293.277 99.415,293.458 100.400 M237.100 103.493 C 238.035 103.577,239.565 103.577,240.500 103.493 C 241.435 103.409,240.670 103.340,238.800 103.340 C 236.930 103.340,236.165 103.409,237.100 103.493 M228.200 104.400 L 227.400 104.744 228.200 104.744 C 228.640 104.744,229.360 104.589,229.800 104.400 L 230.600 104.056 229.800 104.056 C 229.360 104.056,228.640 104.211,228.200 104.400 M294.200 110.799 C 294.200 114.056,294.332 116.514,294.494 116.261 C 294.656 116.007,294.788 113.550,294.788 110.800 C 294.788 108.050,294.656 105.592,294.494 105.338 C 294.332 105.083,294.200 107.541,294.200 110.799 M252.399 107.801 C 253.168 108.680,253.955 109.580,254.148 109.800 C 254.340 110.020,254.311 109.840,254.083 109.400 C 253.855 108.960,253.068 108.060,252.334 107.401 L 251.000 106.202 252.399 107.801 M255.320 115.800 C 255.324 118.437,255.408 119.026,255.634 118.000 C 255.803 117.230,255.800 115.610,255.628 114.400 C 255.338 112.365,255.315 112.470,255.320 115.800 M204.770 115.900 L 203.800 117.000 205.000 116.000 C 205.660 115.450,206.275 114.955,206.367 114.900 C 206.458 114.845,206.355 114.800,206.136 114.800 C 205.918 114.800,205.303 115.295,204.770 115.900 M199.531 120.188 C 198.216 121.410,198.130 121.609,198.708 122.077 C 199.242 122.510,199.298 122.508,199.032 122.065 C 198.820 121.713,199.162 121.065,200.033 120.165 C 201.737 118.408,201.430 118.421,199.531 120.188 M293.646 119.067 C 293.621 119.324,293.484 119.864,293.341 120.267 C 293.140 120.836,293.194 120.897,293.579 120.542 C 293.852 120.291,293.989 119.751,293.884 119.342 C 293.779 118.934,293.672 118.810,293.646 119.067 M252.834 122.953 L 251.869 124.200 253.013 123.112 C 253.643 122.514,254.077 121.953,253.979 121.865 C 253.880 121.777,253.365 122.267,252.834 122.953 M210.600 125.200 C 211.701 125.673,212.092 125.673,211.800 125.200 C 211.664 124.980,211.158 124.813,210.676 124.828 C 209.831 124.855,209.829 124.869,210.600 125.200 M214.433 125.744 C 214.905 126.150,216.843 126.393,216.610 126.016 C 216.468 125.787,215.883 125.600,215.310 125.600 C 214.736 125.600,214.342 125.665,214.433 125.744 M220.033 126.549 C 220.125 126.631,221.100 126.818,222.200 126.965 C 223.620 127.155,224.026 127.114,223.600 126.823 C 223.061 126.454,219.632 126.190,220.033 126.549 M136.196 130.285 C 133.489 134.390,132.583 135.877,133.078 135.400 C 133.752 134.751,138.479 127.545,138.329 127.395 C 138.253 127.320,137.293 128.620,136.196 130.285 M233.911 127.493 C 234.851 127.578,236.291 127.577,237.111 127.491 C 237.930 127.405,237.160 127.336,235.400 127.337 C 233.640 127.339,232.970 127.409,233.911 127.493 M284.800 136.200 C 283.828 137.190,283.123 138.000,283.233 138.000 C 283.343 138.000,284.228 137.190,285.200 136.200 C 286.172 135.210,286.877 134.400,286.767 134.400 C 286.657 134.400,285.772 135.210,284.800 136.200 M129.400 141.200 C 129.059 141.860,128.869 142.400,128.979 142.400 C 129.089 142.400,129.459 141.860,129.800 141.200 C 130.141 140.540,130.331 140.000,130.221 140.000 C 130.111 140.000,129.741 140.540,129.400 141.200 M179.800 145.600 C 179.459 146.260,179.269 146.800,179.379 146.800 C 179.489 146.800,179.859 146.260,180.200 145.600 C 180.541 144.940,180.731 144.400,180.621 144.400 C 180.511 144.400,180.141 144.940,179.800 145.600 M191.400 147.600 C 191.536 147.820,192.042 147.987,192.524 147.972 C 193.369 147.945,193.371 147.931,192.600 147.600 C 191.499 147.127,191.108 147.127,191.400 147.600 M202.200 150.609 C 203.300 150.915,204.560 151.160,205.000 151.155 C 205.440 151.150,204.900 150.896,203.800 150.591 C 202.700 150.285,201.440 150.040,201.000 150.045 C 200.560 150.050,201.100 150.304,202.200 150.609 M260.800 151.028 C 259.370 151.541,258.458 151.969,258.773 151.980 C 259.319 151.999,264.016 150.461,264.367 150.149 C 264.780 149.780,263.183 150.174,260.800 151.028 M212.033 152.549 C 212.125 152.631,213.100 152.801,214.200 152.928 C 215.549 153.084,215.874 153.049,215.200 152.820 C 214.201 152.480,211.718 152.268,212.033 152.549 M216.833 153.347 C 216.925 153.428,218.170 153.593,219.600 153.715 C 221.238 153.854,221.756 153.818,221.000 153.615 C 219.778 153.289,216.530 153.080,216.833 153.347 M249.000 153.620 C 248.211 153.835,248.622 153.870,250.200 153.723 C 251.520 153.600,252.675 153.432,252.767 153.350 C 253.064 153.082,250.234 153.285,249.000 153.620 M227.000 154.410 C 229.012 154.732,235.478 154.926,235.167 154.655 C 235.075 154.575,232.750 154.415,230.000 154.300 C 226.848 154.168,225.739 154.208,227.000 154.410 M239.200 154.400 L 236.200 154.656 239.000 154.705 C 240.540 154.732,242.520 154.605,243.400 154.423 L 245.000 154.092 243.600 154.118 C 242.830 154.132,240.850 154.259,239.200 154.400 M117.400 165.461 C 117.064 166.265,116.882 167.015,116.995 167.128 C 117.108 167.241,117.200 167.235,117.200 167.116 C 117.200 166.996,117.472 166.246,117.805 165.449 C 118.138 164.652,118.321 164.000,118.211 164.000 C 118.101 164.000,117.736 164.658,117.400 165.461 M169.657 166.044 C 169.186 167.178,168.808 168.308,168.817 168.553 C 168.826 168.799,169.276 167.935,169.817 166.633 C 170.357 165.331,170.735 164.202,170.657 164.124 C 170.579 164.045,170.129 164.909,169.657 166.044 M162.446 186.867 C 162.421 187.234,162.296 187.864,162.170 188.267 C 161.952 188.962,161.963 188.963,162.397 188.287 C 162.648 187.896,162.773 187.266,162.673 186.887 C 162.511 186.268,162.488 186.266,162.446 186.867 M107.867 194.267 C 107.720 194.413,107.611 194.908,107.625 195.367 C 107.649 196.133,107.682 196.123,108.034 195.242 C 108.426 194.263,108.344 193.789,107.867 194.267 M107.067 197.467 C 106.920 197.613,106.811 198.108,106.825 198.567 C 106.849 199.333,106.882 199.323,107.234 198.442 C 107.626 197.463,107.544 196.989,107.067 197.467 M106.249 201.415 C 106.112 201.773,106.018 202.456,106.041 202.933 C 106.067 203.481,106.203 203.286,106.410 202.403 C 106.760 200.916,106.665 200.333,106.249 201.415 M159.246 201.667 C 159.221 202.034,159.096 202.664,158.970 203.067 C 158.752 203.762,158.763 203.763,159.197 203.087 C 159.448 202.696,159.573 202.066,159.473 201.687 C 159.311 201.068,159.288 201.066,159.246 201.667 M105.449 205.415 C 105.312 205.773,105.218 206.456,105.241 206.933 C 105.267 207.481,105.403 207.286,105.610 206.403 C 105.960 204.916,105.865 204.333,105.449 205.415 M158.250 206.850 C 157.917 208.517,158.240 208.840,158.600 207.200 C 158.752 206.509,158.793 205.859,158.691 205.758 C 158.589 205.656,158.391 206.147,158.250 206.850 M104.649 209.415 C 104.512 209.773,104.421 210.546,104.446 211.133 C 104.480 211.932,104.570 211.798,104.804 210.600 C 105.135 208.900,105.062 208.340,104.649 209.415 M157.454 214.354 C 157.300 215.318,157.258 216.191,157.361 216.294 C 157.630 216.563,158.115 213.745,157.907 213.122 C 157.812 212.836,157.608 213.390,157.454 214.354 M103.856 214.884 C 103.721 215.388,103.631 216.430,103.655 217.200 C 103.689 218.269,103.775 218.080,104.018 216.402 C 104.353 214.092,104.272 213.333,103.856 214.884 M103.056 220.484 C 102.921 220.988,102.836 222.570,102.867 224.000 C 102.924 226.600,102.924 226.600,103.198 223.200 C 103.488 219.604,103.456 218.993,103.056 220.484 M156.966 231.200 C 156.966 235.270,157.025 236.935,157.098 234.900 C 157.171 232.865,157.171 229.535,157.098 227.500 C 157.025 225.465,156.966 227.130,156.966 231.200 M102.254 230.256 C 101.926 232.652,101.998 252.712,102.340 253.920 C 102.483 254.427,102.600 248.892,102.600 241.620 C 102.600 234.349,102.579 228.400,102.554 228.400 C 102.529 228.400,102.394 229.235,102.254 230.256 M157.275 243.800 C 157.286 244.240,157.432 245.140,157.600 245.800 L 157.905 247.000 157.925 245.800 C 157.935 245.140,157.789 244.240,157.600 243.800 L 157.256 243.000 157.275 243.800 M288.139 249.202 C 286.826 250.084,285.133 251.479,284.377 252.302 L 283.001 253.800 284.601 252.376 C 286.874 250.351,288.988 248.854,290.497 248.198 C 291.214 247.886,291.513 247.624,291.163 247.616 C 290.812 247.607,289.451 248.321,288.139 249.202 M158.068 249.600 C 158.088 250.639,158.718 252.346,158.732 251.400 C 158.738 250.960,158.589 250.240,158.400 249.800 C 158.189 249.310,158.061 249.232,158.068 249.600 M281.600 255.600 C 280.903 256.480,280.423 257.200,280.533 257.200 C 280.643 257.200,281.303 256.480,282.000 255.600 C 282.697 254.720,283.177 254.000,283.067 254.000 C 282.957 254.000,282.297 254.720,281.600 255.600 M102.828 258.233 C 102.844 259.315,103.004 260.560,103.185 261.000 C 103.378 261.470,103.426 260.727,103.302 259.200 C 103.048 256.055,102.789 255.529,102.828 258.233 M298.196 261.811 C 298.193 265.024,298.297 266.373,298.472 265.386 C 298.812 263.474,298.801 259.445,298.453 257.826 C 298.314 257.180,298.198 258.973,298.196 261.811 M278.493 259.200 C 278.218 259.640,278.131 260.000,278.300 260.000 C 278.469 260.000,278.832 259.640,279.107 259.200 C 279.382 258.760,279.469 258.400,279.300 258.400 C 279.131 258.400,278.768 258.760,278.493 259.200 M270.000 268.200 C 269.028 269.190,268.323 270.000,268.433 270.000 C 268.543 270.000,269.428 269.190,270.400 268.200 C 271.372 267.210,272.077 266.400,271.967 266.400 C 271.857 266.400,270.972 267.210,270.000 268.200 M104.406 267.633 C 104.409 268.165,104.589 268.870,104.806 269.200 C 105.082 269.622,105.123 269.385,104.942 268.400 C 104.625 266.675,104.398 266.349,104.406 267.633 M297.654 270.200 C 297.619 270.640,297.489 271.450,297.367 272.000 C 297.175 272.863,297.207 272.903,297.598 272.290 C 297.847 271.899,297.977 271.089,297.886 270.490 C 297.778 269.779,297.697 269.679,297.654 270.200 M165.560 271.800 C 166.234 273.105,166.788 273.828,166.785 273.400 C 166.783 273.180,166.414 272.550,165.964 272.000 C 165.421 271.336,165.285 271.269,165.560 271.800 M106.028 273.476 C 106.013 273.958,106.180 274.464,106.400 274.600 C 106.873 274.892,106.873 274.501,106.400 273.400 C 106.069 272.629,106.055 272.631,106.028 273.476 M167.228 274.584 C 167.745 275.525,169.199 277.282,169.189 276.954 C 169.183 276.759,168.688 276.053,168.089 275.384 C 167.490 274.716,167.103 274.356,167.228 274.584 M170.287 278.600 C 171.167 279.877,172.800 281.488,172.800 281.079 C 172.800 280.944,172.049 280.061,171.130 279.117 C 169.940 277.893,169.698 277.744,170.287 278.600 M246.100 283.626 C 245.165 284.065,244.400 284.519,244.400 284.635 C 244.400 284.752,244.535 284.777,244.700 284.691 C 244.865 284.605,245.675 284.226,246.500 283.848 C 247.325 283.471,248.000 283.081,248.000 282.981 C 248.000 282.733,248.016 282.728,246.100 283.626 M231.400 289.200 C 231.108 289.673,231.499 289.673,232.600 289.200 C 233.371 288.869,233.369 288.855,232.524 288.828 C 232.042 288.813,231.536 288.980,231.400 289.200 M190.200 290.800 C 191.301 291.273,191.692 291.273,191.400 290.800 C 191.264 290.580,190.758 290.413,190.276 290.428 C 189.431 290.455,189.429 290.469,190.200 290.800 M220.800 291.618 C 220.362 291.915,220.524 291.952,221.400 291.756 C 222.871 291.427,223.190 291.198,222.167 291.206 C 221.745 291.209,221.130 291.395,220.800 291.618 M198.400 292.400 C 199.942 292.894,200.764 292.894,200.000 292.400 C 199.670 292.187,198.950 292.027,198.400 292.046 L 197.400 292.080 198.400 292.400 M214.400 292.421 C 213.970 292.714,214.254 292.754,215.400 292.562 C 217.384 292.230,217.704 291.998,216.167 292.006 C 215.525 292.009,214.730 292.196,214.400 292.421 M116.993 296.200 C 118.082 297.967,122.113 302.818,123.641 304.200 C 124.371 304.860,123.985 304.310,122.784 302.977 C 121.583 301.644,119.800 299.484,118.821 298.177 C 116.684 295.322,115.987 294.567,116.993 296.200 M282.801 300.198 C 282.286 300.748,281.939 301.264,282.032 301.346 C 282.124 301.428,282.619 300.978,283.130 300.347 C 284.276 298.935,284.074 298.844,282.801 300.198 M140.000 317.564 C 140.550 318.014,141.180 318.383,141.400 318.385 C 141.828 318.388,141.105 317.834,139.800 317.160 C 139.269 316.885,139.336 317.021,140.000 317.564 M145.000 320.400 C 145.660 320.837,146.380 321.195,146.600 321.196 C 146.820 321.196,146.411 320.838,145.690 320.399 C 143.992 319.363,143.436 319.364,145.000 320.400 M233.800 328.000 C 233.029 328.331,233.031 328.345,233.876 328.372 C 234.358 328.387,234.864 328.220,235.000 328.000 C 235.292 327.527,234.901 327.527,233.800 328.000 M171.815 329.624 C 171.943 329.831,172.697 330.000,173.490 330.000 C 175.261 330.000,175.100 329.790,173.091 329.480 C 172.191 329.341,171.676 329.399,171.815 329.624 M226.200 329.600 L 225.000 329.905 226.276 329.953 C 226.978 329.979,227.664 329.820,227.800 329.600 C 228.074 329.157,227.940 329.157,226.200 329.600 M176.800 330.388 C 177.130 330.608,178.015 330.791,178.767 330.794 C 180.560 330.802,180.241 330.575,178.000 330.250 C 176.742 330.067,176.381 330.109,176.800 330.388 M221.400 330.400 L 220.200 330.705 221.400 330.747 C 222.060 330.769,222.870 330.613,223.200 330.400 C 223.943 329.920,223.287 329.920,221.400 330.400 M183.000 331.206 C 184.216 331.509,189.473 331.722,189.167 331.455 C 189.075 331.376,187.380 331.220,185.400 331.109 C 183.420 330.998,182.340 331.042,183.000 331.206 M213.107 331.490 C 213.826 331.579,214.906 331.577,215.507 331.486 C 216.108 331.395,215.520 331.322,214.200 331.324 C 212.880 331.326,212.388 331.401,213.107 331.490 M195.759 332.123 C 198.376 332.308,202.696 332.310,205.359 332.129 C 209.756 331.829,209.320 331.798,200.600 331.793 C 191.941 331.787,191.466 331.820,195.759 332.123 " stroke="none" fill="#79bcfc" fill-rule="evenodd"></path></g></svg><style>@media (prefers-color-scheme: light) { :root { filter: none; } }
@media (prefers-color-scheme: dark) { :root { filter: invert(100%); } }
</style></svg>